<?xml version="1.0" encoding="iso-8859-1"?>
<!-- Generator: Adobe Illustrator 19.0.0, SVG Export Plug-In . SVG Version: 6.00 Build 0)  -->
<svg version="1.1" id="Layer_1" xmlns="http://www.w3.org/2000/svg" xmlns:xlink="http://www.w3.org/1999/xlink" x="0px" y="0px"
	 viewBox="0 0 512.001 512.001" style="enable-background:new 0 0 512.001 512.001;" xml:space="preserve">
<g>
	<g>
		<path d="M431.565,340.861l80.436-20.49L445.231,57.422l-80.572,20.35l6.869,26.925L269.94,130.519l4.092,16.101l101.594-25.824
			L420.6,297.845l-97.065,24.686c-14.265-36.739-50.305-61.765-90.308-61.765c-53.435,0-96.907,43.472-96.907,96.907
			c0,4.069,0.259,8.17,0.768,12.278l-22.338,5.654L80.63,241.411l238.81-60.641l-4.088-16.102L76.525,225.313l-6.847-26.764
			l182.206-46.299l-4.092-16.101l-144.649,36.767L95.061,140.7l-51.039,12.891l4.069,16.107l34.905-8.816l4.045,16.123l-29.96,7.6
			l-42.457,10.752c-10.414,2.701-16.597,13.021-14.051,23.598l17.481,68.816l16.102-4.09l-17.457-68.714
			c-0.386-1.601,0.515-3.118,2.048-3.515l34.829-8.82l8.909,34.821l36.163,142.245l-34.858,8.894
			c-1.57,0.356-3.103-0.526-3.48-1.953l-20.544-80.871l-16.102,4.09l20.563,80.947c2.314,8.762,10.091,14.493,18.776,14.493
			c1.549,0,3.13-0.184,4.711-0.564l43.048-10.983l29.793-7.54c5.592,18.099,16.484,34.375,31.257,46.472
			c2.294,1.878,4.673,3.635,7.118,5.285H61.562v16.613H427.04v-16.613H287.428c25.75-17.438,42.706-46.923,42.706-80.294
			c0-6.565-0.651-12.988-1.912-19.193l96.477-24.536L431.565,340.861z M233.226,437.968c-37.711,0-70.763-26.718-78.578-63.456
			c-1.138-5.592-1.717-11.258-1.717-16.839c0-44.275,36.019-80.294,80.294-80.294c35.403,0,67.055,23.641,76.975,57.49l0.027,0.092
			c2.185,7.149,3.293,14.79,3.293,22.713C313.52,401.948,277.5,437.968,233.226,437.968z M384.873,89.802l48.339-12.21l58.6,230.778
			l-48.256,12.293L384.873,89.802z"/>
	</g>
</g>
<g>
	<g>
		<rect x="327.725" y="158.26" transform="matrix(0.9697 -0.2444 0.2444 0.9697 -30.3509 88.523)" width="27.641" height="16.613"/>
	</g>
</g>
<g>
	<g>
		
			<rect x="373.894" y="272.899" transform="matrix(0.9696 -0.2449 0.2449 0.9696 -57.142 102.8383)" width="22.162" height="16.613"/>
	</g>
</g>
<g>
	<g>
		<rect x="346.96" y="256.926" transform="matrix(0.9695 -0.2449 0.2449 0.9695 -54.0546 95.766)" width="22.16" height="16.612"/>
	</g>
</g>
<g>
	<g>
		<path d="M233.226,305.067c-29.007,0-52.607,23.6-52.607,52.607c0,29.007,23.6,52.607,52.607,52.607
			c29.007,0,52.607-23.6,52.607-52.607C285.833,328.667,262.233,305.067,233.226,305.067z M233.226,393.668
			c-19.848,0-35.994-16.147-35.994-35.994c0-19.847,16.146-35.994,35.994-35.994c19.848,0,35.994,16.147,35.994,35.994
			C269.22,377.52,253.073,393.668,233.226,393.668z"/>
	</g>
</g>
<g>
	<g>
		<rect x="222.155" y="349.364" width="22.15" height="16.613"/>
	</g>
</g>
<g>
</g>
<g>
</g>
<g>
</g>
<g>
</g>
<g>
</g>
<g>
</g>
<g>
</g>
<g>
</g>
<g>
</g>
<g>
</g>
<g>
</g>
<g>
</g>
<g>
</g>
<g>
</g>
<g>
</g>
</svg>
