<svg width="512" height="404" viewBox="0 0 512 404" fill="none" xmlns="http://www.w3.org/2000/svg">
<g id="rotate_cannon">
<g id="Rotate">
<g id="Group">
<path id="Vector" d="M431.564 283.439L512 262.949L445.23 0L364.658 20.35L371.527 47.275L269.939 73.097L274.031 89.198L375.625 63.374L420.599 240.423L323.534 265.109C309.269 228.37 273.229 203.344 233.226 203.344C179.791 203.344 136.319 246.816 136.319 300.251C136.319 304.32 136.578 308.421 137.087 312.529L114.749 318.183L80.6287 183.989L319.439 123.348L315.351 107.246L76.5238 167.891L69.6768 141.127L251.883 94.828L247.791 78.727L103.142 115.494L95.0597 83.278L44.0207 96.169L48.0897 112.276L82.9948 103.46L87.0397 119.583L57.0798 127.183L14.6227 137.935C4.20875 140.636 -1.97425 150.956 0.571749 161.533L18.0527 230.349L34.1547 226.259L16.6977 157.545C16.3117 155.944 17.2127 154.427 18.7457 154.03L53.5747 145.21L62.4837 180.031L98.6468 322.276L63.7887 331.17C62.2187 331.526 60.6858 330.644 60.3088 329.217L39.7647 248.346L23.6627 252.436L44.2257 333.383C46.5397 342.145 54.3167 347.876 63.0017 347.876C64.5507 347.876 66.1317 347.692 67.7127 347.312L110.761 336.329L140.554 328.789C146.146 346.888 157.038 363.164 171.811 375.261C174.105 377.139 176.484 378.896 178.929 380.546H61.5607L61.5607 397.159L427.039 397.159V380.546L287.427 380.546C313.177 363.108 330.133 333.623 330.133 300.252C330.133 293.687 329.482 287.264 328.221 281.059L424.698 256.523L431.564 283.439ZM233.225 380.546C195.514 380.546 162.462 353.828 154.647 317.09C153.509 311.498 152.93 305.832 152.93 300.251C152.93 255.976 188.949 219.957 233.224 219.957C268.627 219.957 300.279 243.598 310.199 277.447L310.226 277.539C312.411 284.688 313.519 292.329 313.519 300.252C313.519 344.526 277.499 380.546 233.225 380.546ZM384.872 32.38L433.211 20.17L491.811 250.948L443.555 263.241L384.872 32.38Z" fill="black"/>
</g>
<g id="Vector 1">
<path d="M61.5051 397.136L61.7931 380.638L178.79 380.899C223.953 402.246 247.648 400.103 287.828 380.583L426.851 380.509L427.063 397.016L61.5051 397.136Z" fill="white"/>
<path d="M178.31 380.672C178.47 380.748 178.63 380.824 178.79 380.899M178.79 380.899C223.953 402.246 247.648 400.103 287.828 380.583L426.851 380.509L427.063 397.016L61.5051 397.136L61.7931 380.638L178.79 380.899Z" stroke="white"/>
</g>
</g>
<g id="wheel">
<circle id="Ellipse 1" cx="232.945" cy="300" r="87.5" stroke="black" stroke-width="5"/>
</g>
<g id="cannon_detail">
<g id="Group_2">
<g id="Group_3">
<path id="Vector_2" d="M356.001 96.2002L329.084 102.487L332.862 118.665L359.78 112.378L356.001 96.2002Z" fill="black"/>
</g>
</g>
<g id="Group_4">
<g id="Group_5">
<path id="Vector_3" d="M396.584 211.311L375.096 216.738L379.164 232.846L400.653 227.419L396.584 211.311Z" fill="black"/>
</g>
</g>
<g id="Group_6">
<g id="Group_7">
<path id="Vector_4" d="M369.606 195.322L348.121 200.749L352.19 216.854L373.674 211.427L369.606 195.322Z" fill="black"/>
</g>
</g>
</g>
</g>
</svg>
