<svg width="130" height="120" viewBox="0 0 130 120" fill="none" xmlns="http://www.w3.org/2000/svg">
<g id="canon">
<g id="rotate_cannon">
<g id="Rotate">
<g id="Group">
<path id="Vector" d="M109.577 71.967L130 66.7644L113.047 0L92.5889 5.167L94.333 12.0034L68.5392 18.5598L69.5782 22.6479L95.3735 16.0911L106.793 61.0449L82.1473 67.3129C78.5253 57.9846 69.3745 51.6303 59.2175 51.6303C45.65 51.6303 34.6122 62.6682 34.6122 76.2356C34.6122 77.2688 34.678 78.3101 34.8072 79.3531L29.1354 80.7887L20.4722 46.716L81.1075 31.3188L80.0696 27.2304L19.4299 42.6286L17.6914 35.833L63.9546 24.0774L62.9157 19.9893L26.1883 29.3247L24.1363 21.1448L11.1771 24.4179L12.2103 28.5076L21.0729 26.2692L22.0999 30.3629L14.4929 32.2926L3.71281 35.0226C1.06863 35.7084 -0.501275 38.3287 0.145171 41.0143L4.58371 58.4871L8.67211 57.4486L4.23967 40.0017C4.14166 39.5952 4.37043 39.21 4.75967 39.1092L13.603 36.8697L15.865 45.711L25.047 81.8279L16.1964 84.0862C15.7977 84.1766 15.4085 83.9526 15.3128 83.5903L10.0965 63.0566L6.00812 64.0951L11.2292 84.6481C11.8167 86.8728 13.7914 88.3279 15.9965 88.3279C16.3898 88.3279 16.7913 88.2812 17.1927 88.1847L28.1229 85.3961L35.6875 83.4816C37.1073 88.0771 39.8729 92.2097 43.6238 95.2812C44.2063 95.758 44.8104 96.2041 45.4312 96.6231H15.6307V100.841L108.428 100.841V96.6231L72.9795 96.6231C79.5176 92.1954 83.8228 84.709 83.8228 76.2359C83.8228 74.569 83.6575 72.9382 83.3373 71.3627L107.833 65.1328L109.577 71.967ZM59.2173 96.6231C49.6422 96.6231 41.2501 89.8392 39.2658 80.5112C38.9769 79.0913 38.8298 77.6527 38.8298 76.2356C38.8298 64.9939 47.9753 55.8485 59.217 55.8485C68.2061 55.8485 76.2427 61.8511 78.7615 70.4456L78.7683 70.4689C79.3231 72.2841 79.6044 74.2242 79.6044 76.2359C79.6044 87.4773 70.4587 96.6231 59.2173 96.6231ZM97.7214 8.22149L109.995 5.12129L124.874 63.7173L112.621 66.8386L97.7214 8.22149Z" fill="black"/>
</g>
<g id="Vector 1">
<path d="M15.6165 100.835L15.6896 96.6465L45.3958 96.7127C56.8629 102.133 62.8793 101.589 73.0815 96.6325L108.38 96.6138L108.434 100.805L15.6165 100.835Z" fill="white"/>
<path d="M45.2741 96.655C45.3147 96.6743 45.3553 96.6935 45.3958 96.7127M45.3958 96.7127C56.8629 102.133 62.8793 101.589 73.0815 96.6325L108.38 96.6138L108.434 100.805L15.6165 100.835L15.6896 96.6465L45.3958 96.7127Z" stroke="white"/>
</g>
</g>
<g id="wheel">
<circle id="Ellipse 1" cx="59.1461" cy="76.172" r="24.082" stroke="black" stroke-width="5"/>
</g>
<g id="cannon_detail">
<g id="Group_2">
<g id="Group_3">
<path id="Vector_2" d="M90.391 24.4258L83.5565 26.0221L84.5159 30.1298L91.3504 28.5336L90.391 24.4258Z" fill="black"/>
</g>
</g>
<g id="Group_4">
<g id="Group_5">
<path id="Vector_3" d="M100.695 53.6532L95.2392 55.0312L96.2723 59.1212L101.728 57.7431L100.695 53.6532Z" fill="black"/>
</g>
</g>
<g id="Group_6">
<g id="Group_7">
<path id="Vector_4" d="M93.8452 49.5935L88.3903 50.9715L89.4232 55.0607L94.8782 53.6828L93.8452 49.5935Z" fill="black"/>
</g>
</g>
</g>
</g>
<g id="fixed_point">
<path id="Polygon 1" d="M54.7224 67.5853C54.7602 67.5156 54.7792 67.4808 54.7922 67.4573C56.6987 64.0351 61.6216 64.0351 63.5281 67.4573C63.5412 67.4808 63.5601 67.5156 63.5979 67.5852L79.5163 96.8954C79.5512 96.9598 79.5687 96.992 79.5808 97.0148C81.3344 100.325 78.9599 104.317 75.2143 104.355C75.1884 104.356 75.1518 104.356 75.0785 104.356H43.2418C43.1685 104.356 43.1319 104.356 43.1061 104.355C39.3605 104.317 36.9859 100.325 38.7395 97.0148C38.7516 96.992 38.7691 96.9598 38.8041 96.8954L54.7224 67.5853Z" fill="#FF4C29"/>
<g id="Group_8">
<path id="Vector_5" d="M54.5899 76.8567C54.5899 79.3343 56.6056 81.3501 59.0835 81.3501C61.5614 81.3501 63.5769 79.3343 63.5769 76.8567C63.5769 74.3788 61.5614 72.3633 59.0835 72.3633C56.6056 72.3633 54.5899 74.3788 54.5899 76.8567ZM59.5258 76.8567C59.5258 77.1005 59.3275 77.2988 59.0838 77.2988C58.8398 77.2988 58.6415 77.1005 58.6415 76.8567C58.6415 76.6127 58.8398 76.4144 59.0838 76.4144C59.3273 76.4144 59.5258 76.6127 59.5258 76.8567Z" fill="white"/>
</g>
</g>
</g>
</svg>
