<svg width="200" height="200" viewBox="0 0 200 200" fill="none" xmlns="http://www.w3.org/2000/svg">
<path fill-rule="evenodd" clip-rule="evenodd" d="M107.143 0H92.857V63.253L69.162 4.60582L55.9165 9.95735L80.2255 70.124L34.3401 24.2385L24.2386 34.3401L68.2175 78.319L11.2241 53.418L5.5046 66.509L65.8105 92.857H0V107.143H65.8105L5.5046 133.491L11.2241 146.582L68.2175 121.681L24.2386 165.66L34.3401 175.761L80.2255 129.876L55.9165 190.043L69.162 195.394L92.857 136.747V200H107.143V136.747L130.838 195.394L144.083 190.043L119.775 129.876L165.66 175.761L175.761 165.66L131.782 121.681L188.776 146.582L194.495 133.491L134.19 107.143H200V92.857H134.189L194.495 66.509L188.776 53.418L131.782 78.319L175.761 34.34L165.66 24.2385L119.775 70.124L144.083 9.95735L130.838 4.60582L107.143 63.253V0Z" fill="#E94D35"/>
</svg>
