<svg width="85" height="85" viewBox="0 0 85 85" fill="none" xmlns="http://www.w3.org/2000/svg">
<circle cx="42.5" cy="42.5" r="42.5" fill="#EEEBDD"/>
<path d="M62.5 23.5C62.5 19.9098 59.5902 17 56 17C52.4098 17 49.5 19.9098 49.5 23.5C49.5 26.3665 51.3655 28.7715 53.9417 29.636C54.3057 38.9418 49.5628 39.958 43.1127 41.3165C39.4098 42.0965 35.2217 42.9957 32.1667 45.834V29.6013C34.6865 28.7065 36.5 26.3275 36.5 23.5C36.5 19.9098 33.5902 17 30 17C26.4098 17 23.5 19.9098 23.5 23.5C23.5 26.3275 25.3135 28.7065 27.8333 29.6013V56.3965C25.3135 57.2935 23.5 59.6725 23.5 62.5C23.5 66.0902 26.4098 69 30 69C33.5902 69 36.5 66.0902 36.5 62.5C36.5 59.6942 34.7147 57.326 32.2252 56.416C32.8102 47.9183 37.7935 46.8653 44.0053 45.5567C50.5877 44.17 58.6823 42.4323 58.2598 29.5732C60.732 28.6523 62.5 26.2928 62.5 23.5ZM26.1 23.5C26.1 21.3485 27.8485 19.6 30 19.6C32.1515 19.6 33.9 21.3485 33.9 23.5C33.9 25.6515 32.1515 27.4 30 27.4C27.8485 27.4 26.1 25.6515 26.1 23.5ZM33.9 62.5C33.9 64.6515 32.1515 66.4 30 66.4C27.8485 66.4 26.1 64.6515 26.1 62.5C26.1 60.3485 27.8485 58.6 30 58.6C32.1515 58.6 33.9 60.3485 33.9 62.5ZM56 27.4C53.8485 27.4 52.1 25.6515 52.1 23.5C52.1 21.3485 53.8485 19.6 56 19.6C58.1515 19.6 59.9 21.3485 59.9 23.5C59.9 25.6515 58.1515 27.4 56 27.4Z" fill="#810000"/>
</svg>
