<svg width="85" height="85" viewBox="0 0 85 85" fill="none" xmlns="http://www.w3.org/2000/svg">
<circle cx="42.5" cy="42.5" r="42.5" fill="#EEEBDD"/>
<g clip-path="url(#clip0_205_11)">
<path d="M61.8358 35.72C59.8663 39.0112 56.794 42.3652 52.959 42.2287C52.0642 43.7583 51.113 45.8622 50.0578 48.3018L47.2152 49.5C49.2432 44.4235 52.049 38.7512 55.2275 34.3463C53.7758 35.4925 51.4445 37.8932 49.4598 40.3762C47.0808 36.4155 48.8098 32.379 51.568 29.155C51.6135 30.5438 52.3458 31.7463 52.8702 32.3508C52.6817 31.2025 52.6232 29.1247 53.2927 27.257C54.8483 25.671 56.248 24.5032 57.8708 23.4437C57.691 24.4793 58.0442 25.6667 58.4385 26.3925C58.4905 25.3308 58.9238 23.2942 59.5673 22.4058C61.5693 20.8307 64.62 19.431 68 19.1667C67.8245 21.2748 67.0553 24.7458 65.7813 26.9753C64.6655 27.8507 63.1358 28.4487 61.9008 28.7802C62.969 28.973 64.1347 28.947 65.1378 28.778C64.555 30.3878 63.9418 31.872 62.9755 33.7093C61.5043 34.7233 59.5565 35.2953 58.2023 35.4968C59.199 35.902 60.9583 36.0277 61.8358 35.72ZM31.847 43.9642L33.2445 45.6563L43.586 39.6092L42.1387 37.9452L31.847 43.9642ZM46.927 43.4485L45.4797 41.7867L35.0688 47.8707L36.4663 49.5628L46.927 43.4485ZM57.0648 43.4637C56.1527 43.9035 55.221 44.2025 54.2785 44.326C54.0185 44.8265 53.7455 45.3963 53.4617 46.0008L54.1073 46.7418C55.4572 48.2412 55.1018 50.4338 53.2927 51.593C51.6178 52.6698 41.7205 58.9077 39.4563 60.3355C39.296 58.7733 38.6807 57.3217 37.6667 56.1148C36.6505 54.908 24.4175 40.1335 21.3668 36.2292C20.3507 34.9292 20.121 33.5317 20.7277 32.2945C21.3083 31.105 22.552 30.3055 23.826 30.3055C25.8172 30.3055 26.8767 31.7247 27.1822 32.938C27.5288 34.3268 27.1063 35.6052 25.8323 36.5888L28.7118 40.1075L45.6032 30.4745C48.6842 28.1973 49.5508 23.994 47.6182 20.6963C46.2792 18.4148 43.807 17 41.1658 17C38.5918 17 39.4477 16.9653 20.4417 26.6958C17.768 27.9763 16 30.5677 16 33.6335C16 35.5185 16.6673 37.4382 17.9262 39.022C21.018 42.909 34.3083 58.9228 34.4275 59.0788C35.2313 60.147 35.3527 61.5033 34.7525 62.7037C34.1523 63.9062 32.9932 64.6233 31.6563 64.6233C29.6652 64.6233 28.6057 63.2042 28.3002 61.9887C27.9622 60.6258 28.3262 59.3713 29.6088 58.405L26.842 55.0575C25.061 56.4983 24.0752 58.2988 23.8585 60.3485C23.3558 65.126 27.1627 69 31.6867 69C32.978 69 34.5272 68.6165 35.6755 67.895L56.1007 55.012C58.1742 53.5733 59.3333 51.1532 59.3333 48.7352C59.3333 47.121 58.8133 45.5848 57.8427 44.3953L57.0648 43.4637ZM39.8767 21.6627C40.284 21.4742 40.739 21.3723 41.1962 21.3723C42.3488 21.3723 43.3563 21.9812 43.8893 23.0017C44.5653 24.293 44.379 26.1845 42.702 27.1443L31.6585 33.4017C31.548 31.0422 30.404 28.8928 28.506 27.4823L39.8767 21.6627ZM44.4202 50.6592L45.2023 48.6983L45.7418 47.3788L38.269 51.749L39.6665 53.4412L44.4202 50.6592Z" fill="#810000"/>
</g>
<defs>
<clipPath id="clip0_205_11">
<rect width="52" height="52" fill="white" transform="translate(16 17)"/>
</clipPath>
</defs>
</svg>
