<svg width="85" height="85" viewBox="0 0 85 85" fill="none" xmlns="http://www.w3.org/2000/svg">
<circle cx="42.5" cy="42.5" r="42.5" fill="#EEEBDD"/>
<path d="M46.1058 40.0165L49.0742 35.5662C49.8325 34.4287 51.3708 34.121 52.5083 34.8793C53.6437 35.6377 53.9535 37.176 53.193 38.3135L50.2268 42.7638C49.4685 43.9013 47.9302 44.209 46.7927 43.4507C45.6552 42.6923 45.3475 41.154 46.1058 40.0165ZM42.0303 38.5345C43.1678 39.295 44.7083 38.9852 45.4688 37.8477L48.4653 33.354C49.228 32.2143 48.9182 30.6738 47.7785 29.9133C46.641 29.1528 45.1005 29.4627 44.34 30.6023L41.3435 35.096C40.5808 36.2357 40.8885 37.7762 42.0303 38.5345ZM57.2122 47.0907L54.5862 51.0275C53.8885 52.074 54.1723 53.4888 55.2188 54.1865C56.2653 54.8842 57.6802 54.6003 58.3778 53.5538L61.0017 49.617C61.7015 48.5705 61.4177 47.1557 60.3712 46.458C59.3247 45.7603 57.9098 46.042 57.2122 47.0907ZM50.5583 45.2707C49.8 46.4038 50.1077 47.9378 51.2408 48.694C52.3762 49.4502 53.908 49.1447 54.6642 48.0093L57.5068 43.7453C58.2652 42.61 57.9575 41.0782 56.8222 40.322C55.689 39.5658 54.1572 39.8713 53.401 41.0067L50.5583 45.2707ZM62.8325 69C61.513 69 60.1892 68.4973 59.1795 67.4877L43.9652 52.009C46.3225 49.4025 45.1785 44.9045 41.4042 44.235L34.7438 43.052L32.4515 40.7597C31.1493 39.4597 29.3597 38.775 27.5267 38.8725C24.5323 39.0328 21.4882 37.969 19.2023 35.6832C17.066 33.5447 16 30.7453 16 27.9438C16 26.7305 16.1993 25.5172 16.6002 24.358L23.5638 31.3217C26.2787 31.482 30.4798 27.2808 30.3195 24.5638L23.358 17.6002C24.5172 17.1993 25.7283 17 26.9417 17C29.7432 17 32.5447 18.0682 34.681 20.2045C36.9668 22.4903 38.0285 25.5345 37.8703 28.5288C37.7728 30.3618 38.4575 32.1558 39.7575 33.4537L39.816 33.5122C37.1228 38.0253 40.7542 41.1172 43.729 41.0023C43.1938 43.5612 45.9325 46.2262 48.2833 46.2262C47.7005 48.4795 49.4447 50.8303 52.1595 51.3633C51.0653 55.311 57.0518 59.5252 60.5163 54.2125L66.4877 60.1817C67.4973 61.1913 68 62.513 68 63.8347C68 66.686 65.6903 69 62.8325 69ZM64.75 63.5833C64.75 62.3873 63.7793 61.4167 62.5812 61.4167C61.3852 61.4167 60.4145 62.3873 60.4145 63.5833C60.4145 64.7793 61.3852 65.75 62.5812 65.75C63.7793 65.75 64.75 64.7793 64.75 63.5833ZM43.8828 55.0488C42.4377 53.5582 40.1973 53.4477 36.1175 53.1768C35.4978 53.1357 35.1165 53.5343 35.0667 54.1367L34.0743 63.254C34.0743 63.254 40.128 67.3447 42.611 69C44.9163 64.8378 48.4588 64.5865 51.1065 62.4957L43.8828 55.0488ZM40.3685 51.3828C43.5253 51.3828 44.0042 46.9108 41.025 46.3822C29.8212 44.391 30.4105 44.456 30.0422 44.456C28.6663 44.456 27.4725 45.4375 27.206 46.7917L26.2397 55.3413C26.1075 56.7085 26.5538 57.8893 27.6112 58.6607C28.6663 59.4277 32.0008 61.8002 32.0008 61.8002C32.0008 61.8002 32.7115 55.6577 32.9108 53.8897C33.1123 52.1238 34.1047 50.904 35.9962 50.9972C36.1955 51.0058 40.024 51.3828 40.3685 51.3828Z" fill="#810000"/>
</svg>
