<svg width="103" height="27" viewBox="0 0 103 27" fill="none" xmlns="http://www.w3.org/2000/svg">
<path d="M3.544 26.256C2.584 26.256 1.79467 25.9787 1.176 25.424C0.578667 24.848 0.28 24.144 0.28 23.312C0.28 22.4587 0.578667 21.744 1.176 21.168C1.79467 20.592 2.584 20.304 3.544 20.304C4.48267 20.304 5.25067 20.592 5.848 21.168C6.46667 21.744 6.776 22.4587 6.776 23.312C6.776 24.144 6.46667 24.848 5.848 25.424C5.25067 25.9787 4.48267 26.256 3.544 26.256Z" fill="#FF4C29"/>
<path d="M32.7993 7.952C35.0179 7.952 36.7779 8.624 38.0793 9.968C39.4019 11.312 40.0633 13.1787 40.0633 15.568V26H34.6233V16.304C34.6233 15.152 34.3139 14.2667 33.6953 13.648C33.0979 13.008 32.2659 12.688 31.1993 12.688C30.1326 12.688 29.2899 13.008 28.6713 13.648C28.0739 14.2667 27.7753 15.152 27.7753 16.304V26H22.3353V16.304C22.3353 15.152 22.0259 14.2667 21.4073 13.648C20.8099 13.008 19.9779 12.688 18.9113 12.688C17.8446 12.688 17.0019 13.008 16.3833 13.648C15.7859 14.2667 15.4873 15.152 15.4873 16.304V26H10.0153V8.144H15.4873V10.384C16.0419 9.63733 16.7673 9.05067 17.6633 8.624C18.5593 8.176 19.5726 7.952 20.7033 7.952C22.0473 7.952 23.2419 8.24 24.2873 8.816C25.3539 9.392 26.1859 10.2133 26.7833 11.28C27.4019 10.2987 28.2446 9.49867 29.3113 8.88C30.3779 8.26133 31.5406 7.952 32.7993 7.952ZM42.8023 17.04C42.8023 15.2053 43.1436 13.5947 43.8263 12.208C44.5303 10.8213 45.4796 9.75467 46.6743 9.008C47.8689 8.26133 49.2023 7.888 50.6743 7.888C51.9329 7.888 53.0316 8.144 53.9703 8.656C54.9303 9.168 55.6663 9.84 56.1783 10.672V8.144H61.6503V26H56.1783V23.472C55.6449 24.304 54.8983 24.976 53.9383 25.488C52.9996 26 51.9009 26.256 50.6423 26.256C49.1916 26.256 47.8689 25.8827 46.6743 25.136C45.4796 24.368 44.5303 23.2907 43.8263 21.904C43.1436 20.496 42.8023 18.8747 42.8023 17.04ZM56.1783 17.072C56.1783 15.7067 55.7943 14.6293 55.0263 13.84C54.2796 13.0507 53.3623 12.656 52.2743 12.656C51.1863 12.656 50.2583 13.0507 49.4903 13.84C48.7436 14.608 48.3703 15.6747 48.3703 17.04C48.3703 18.4053 48.7436 19.4933 49.4903 20.304C50.2583 21.0933 51.1863 21.488 52.2743 21.488C53.3623 21.488 54.2796 21.0933 55.0263 20.304C55.7943 19.5147 56.1783 18.4373 56.1783 17.072ZM71.081 2.32V26H65.609V2.32H71.081ZM77.7985 6.288C76.8385 6.288 76.0492 6.01067 75.4305 5.456C74.8332 4.88 74.5345 4.176 74.5345 3.344C74.5345 2.49067 74.8332 1.78667 75.4305 1.232C76.0492 0.655998 76.8385 0.367998 77.7985 0.367998C78.7372 0.367998 79.5052 0.655998 80.1025 1.232C80.7212 1.78667 81.0305 2.49067 81.0305 3.344C81.0305 4.176 80.7212 4.88 80.1025 5.456C79.5052 6.01067 78.7372 6.288 77.7985 6.288ZM80.5185 8.144V26H75.0465V8.144H80.5185ZM95.396 26L89.956 18.512V26H84.484V2.32H89.956V15.408L95.364 8.144H102.116L94.692 17.104L102.18 26H95.396Z" fill="black"/>
</svg>
