<svg width="141" height="32" viewBox="0 0 141 32" fill="none" xmlns="http://www.w3.org/2000/svg">
<path d="M0.641 32L3.415 0.649998H11.205L18.064 18.472L24.923 0.649998H32.713L35.487 32H28.172L26.766 13.741L20.268 31.639H15.86L9.362 13.741L7.975 32H0.641ZM37.8682 32L50.5602 0.649998H57.3622L70.0352 32H62.1502L59.9082 25.882H48.0142L45.7532 32H37.8682ZM50.5032 19.46H57.4002L53.9612 10.587L50.5032 19.46ZM73.7595 32V0.649998H81.0745V25.578H91.7525V32H73.7595ZM95.988 32V0.649998H103.303V32H95.988ZM111.277 32V0.649998H118.592V13.266L129.175 0.649998H138.105L125.356 15.565L140.081 32H129.992L118.592 19.099V32H111.277Z" fill="#810000"/>
</svg>
